<svg width="25" height="23" viewBox="0 0 25 23" fill="none" xmlns="http://www.w3.org/2000/svg">
<ellipse cx="12.1926" cy="11.5" rx="12.1179" ry="11.5" fill="#3085FE"/>
<path d="M17.6719 6.3H16.3021V5H14.9322V6.3H9.45281V5H8.08296V6.3H6.71311C5.95661 6.3 5.34326 6.88207 5.34326 7.6V16.7C5.34326 17.4179 5.95661 18 6.71311 18H17.6719C18.4284 18 19.0418 17.4179 19.0418 16.7V7.6C19.0418 6.88207 18.4284 6.3 17.6719 6.3ZM17.6719 16.7H6.71311V10.2H17.6719V16.7ZM17.6719 8.9H6.71311V7.6H17.6719V8.9Z" fill="#1E1E1E"/>
<path d="M13.5622 11.5H12.1924V12.8H13.5622V11.5Z" fill="#1E1E1E"/>
<path d="M16.3025 11.5H14.9326V12.8H16.3025V11.5Z" fill="#1E1E1E"/>
<path d="M13.5622 14.0989H12.1924V15.3989H13.5622V14.0989Z" fill="#1E1E1E"/>
<path d="M10.8225 14.0989H9.45264V15.3989H10.8225V14.0989Z" fill="#1E1E1E"/>
</svg>
