<svg width="10" height="15" viewBox="0 0 10 15" fill="none" xmlns="http://www.w3.org/2000/svg">
<path fill-rule="evenodd" clip-rule="evenodd" d="M0.0142815 1.28684C0.00696072 1.03863 0.0737379 0.793832 0.206097 0.58372C0.338456 0.373607 0.530398 0.207769 0.757444 0.107188C0.984489 0.00660655 1.23635 -0.0241493 1.4809 0.0189919C1.72545 0.0621331 1.95161 0.177146 2.13053 0.349345L8.76803 6.58683C8.89252 6.70373 8.99175 6.84499 9.05957 7.00172C9.1274 7.15844 9.16239 7.32731 9.16239 7.49809C9.16239 7.66886 9.1274 7.83788 9.05957 7.99461C8.99175 8.15133 8.89252 8.29245 8.76803 8.40934L2.13053 14.6468C2.01198 14.7645 1.87105 14.8572 1.71606 14.9195C1.56108 14.9818 1.39518 15.0124 1.22818 15.0095C1.06118 15.0066 0.896451 14.9702 0.743734 14.9026C0.591018 14.8349 0.453409 14.7373 0.339035 14.6156C0.224661 14.4938 0.135843 14.3504 0.0778266 14.1938C0.0198107 14.0372 -0.00622629 13.8705 0.00125431 13.7037C0.00873491 13.5368 0.0495815 13.3731 0.12138 13.2223C0.193179 13.0715 0.294474 12.9367 0.419281 12.8257L6.08803 7.49809L0.419281 2.17063C0.296173 2.05784 0.19691 1.92157 0.12735 1.76979C0.0577906 1.618 0.0193444 1.45373 0.0142815 1.28684Z" fill="white"/>
</svg>
