<svg width="40" height="40" viewBox="0 0 40 40" fill="none" xmlns="http://www.w3.org/2000/svg">
<circle cx="20" cy="20" r="20" fill="#3D3D3D"/>
<path d="M25.7336 18.403H24.4836V15.7363C24.4836 13.153 22.3586 11.028 19.7752 11.028C17.1919 11.028 15.0669 13.153 15.0669 15.7363V18.403H13.8169V15.7363C13.8169 12.4447 16.4836 9.77798 19.7752 9.77798C23.0669 9.77798 25.7336 12.4447 25.7336 15.7363V18.403Z" fill="white"/>
<path d="M25.1086 29.7363H14.4419C13.3586 29.7363 12.4419 28.8197 12.4419 27.7363V19.7363C12.4419 18.653 13.3586 17.7363 14.4419 17.7363H25.1086C26.1919 17.7363 27.1086 18.653 27.1086 19.7363V27.7363C27.1086 28.8613 26.1919 29.7363 25.1086 29.7363ZM14.4419 19.0697C14.0669 19.0697 13.7752 19.3613 13.7752 19.7363V27.7363C13.7752 28.1113 14.0669 28.403 14.4419 28.403H25.1086C25.4836 28.403 25.7752 28.1113 25.7752 27.7363V19.7363C25.7752 19.3613 25.4836 19.0697 25.1086 19.0697H14.4419Z" fill="white"/>
<path d="M21.1086 21.7363C21.1086 22.4863 20.5252 23.0697 19.7752 23.0697C19.0252 23.0697 18.4419 22.4863 18.4419 21.7363C18.4419 20.9863 19.0252 20.403 19.7752 20.403C20.5252 20.403 21.1086 21.028 21.1086 21.7363Z" fill="white"/>
<path d="M20.1087 21.7363H19.4421L18.7754 25.7363H20.7754L20.1087 21.7363Z" fill="white"/>
</svg>
