<svg width="140" height="140" viewBox="0 0 140 140" fill="none" xmlns="http://www.w3.org/2000/svg">
<circle cx="70" cy="70" r="69.5" stroke="#3085FE"/>
<path d="M98.2045 86.4206C95.1757 85.0956 91.5791 86.2313 89.6861 89.0708L79.2749 105.54C78.8963 106.107 77.9498 106.107 77.7605 105.35L73.4067 90.9637C73.2174 90.3959 73.4067 89.6387 73.7853 89.2601L81.9642 84.4922C82.7214 83.9243 82.1535 82.5992 81.2071 82.5992H60.2642C59.3178 82.5992 58.7499 83.735 59.5071 84.4922L67.3492 89.2601C67.7278 89.6387 67.9171 90.3959 67.7278 90.9637L63.374 105.35C63.1847 106.107 62.2382 106.107 61.8596 105.54L51.4484 89.0708C49.5554 86.2313 46.1481 85.0956 42.9301 86.4206C23.6219 94.3711 18.207 95.7553 18.207 116.199C18.207 117.457 25.6821 123.942 33.607 128.799C41.1872 133.445 49.204 136.499 50.407 136.499L60.9071 138.599L72.8071 139.299L84.7071 137.899L94.5071 135.099C96.9679 135.099 122.507 117.96 122.507 115.499C122.507 95.0553 117.323 94.3711 98.2045 86.4206ZM70.5673 77.9023C95.9329 77.9023 109.184 20.167 70.5673 19.5991C31.9509 20.3563 45.2016 77.9023 70.5673 77.9023Z" fill="#3085FE"/>
</svg>
