<svg width="40" height="40" viewBox="0 0 40 40" fill="none" xmlns="http://www.w3.org/2000/svg">
<g clip-path="url(#clip0_75_427)">
<path d="M17.4444 12H27.2963C27.7185 12 28 12.2815 28 12.7037L28 28.1852C28 28.6074 27.7185 28.8889 27.2963 28.8889H17.4444C17.0222 28.8889 16.7407 28.6074 16.7407 28.1852V23.2593C16.7407 22.837 17.0222 22.5556 17.4444 22.5556C17.8667 22.5556 18.1481 22.837 18.1481 23.2593V27.4815H26.5926L26.5926 13.4074L18.1481 13.4074V17.6296C18.1481 18.0518 17.8667 18.3333 17.4444 18.3333C17.0222 18.3333 16.7407 18.0518 16.7407 17.6296V12.7037C16.7407 12.2815 17.0222 12 17.4444 12Z" fill="#E64646"/>
<path d="M11.815 19.7407H22.3705C22.7927 19.7407 23.0742 20.0222 23.0742 20.4444C23.0742 20.8667 22.7927 21.1481 22.3705 21.1481H11.815C11.3927 21.1481 11.1113 20.8667 11.1113 20.4444C11.1113 20.0222 11.3927 19.7407 11.815 19.7407Z" fill="#E64646"/>
<path d="M11.815 19.7407C12.0261 19.7407 12.1668 19.8111 12.3076 19.9518L15.1224 22.7667C15.4039 23.0481 15.4039 23.4704 15.1224 23.7518C14.8409 24.0333 14.4187 24.0333 14.1372 23.7518L11.3224 20.937C11.0409 20.6555 11.0409 20.2333 11.3224 19.9518C11.4631 19.8111 11.6039 19.7407 11.815 19.7407Z" fill="#E64646"/>
<path d="M14.6298 16.9259C14.8409 16.9259 14.9816 16.9963 15.1224 17.137C15.4039 17.4185 15.4039 17.8407 15.1224 18.1222L12.3076 20.937C12.0261 21.2185 11.6039 21.2185 11.3224 20.937C11.0409 20.6556 11.0409 20.2333 11.3224 19.9519L14.1372 17.137C14.2779 16.9963 14.4187 16.9259 14.6298 16.9259Z" fill="#E64646"/>
</g>
<path d="M40 20C40 31.0457 31.0457 40 20 40C8.9543 40 0 31.0457 0 20C0 8.9543 8.9543 0 20 0C31.0457 0 40 8.9543 40 20Z" fill="#E64646" fill-opacity="0.2"/>
<defs>
<clipPath id="clip0_75_427">
<rect width="16.8889" height="16.8889" fill="white" transform="matrix(-1 0 0 -1 28 28.8889)"/>
</clipPath>
</defs>
</svg>
