<svg width="40" height="40" viewBox="0 0 40 40" fill="none" xmlns="http://www.w3.org/2000/svg">
<path d="M40 20C40 31.0457 31.0457 40 20 40C8.9543 40 0 31.0457 0 20C0 8.9543 8.9543 0 20 0C31.0457 0 40 8.9543 40 20Z" fill="#3D3D3D"/>
<path d="M22.7805 10.288C21.0472 9.80268 19.2445 10.0338 17.6961 10.912C16.1245 11.7902 15.0152 13.2231 14.5298 14.9565L12.9583 20.6187L9.76896 23.6925C9.6534 23.808 9.60718 23.9698 9.63029 24.1316C9.67651 24.2933 9.79207 24.4089 9.95385 24.4551L15.5698 26.0267C15.5005 26.6045 15.6161 27.1822 15.9165 27.6907C16.2863 28.3378 16.8872 28.8 17.5805 29.008C17.8347 29.0773 18.0658 29.1005 18.3201 29.1005C18.7823 29.1005 19.2676 28.9849 19.6836 28.7538C20.1921 28.4765 20.585 28.0373 20.8392 27.5058L26.4321 29.0773C26.4783 29.0773 26.5245 29.1005 26.5476 29.1005C26.6632 29.1005 26.7787 29.0542 26.8712 28.9618C26.9867 28.8462 27.033 28.6845 26.9867 28.5227L25.8543 24.2471L27.449 18.5387C28.4427 14.9796 26.3396 11.2587 22.7805 10.288ZM19.2445 27.9218C18.8054 28.1529 18.3201 28.2222 17.8347 28.0836C17.3494 27.9449 16.9565 27.6445 16.7254 27.2053C16.5636 26.9049 16.4712 26.5813 16.4943 26.2578L19.9378 27.2053C19.7761 27.5058 19.545 27.76 19.2445 27.9218ZM26.5707 18.2845L24.953 24.0622C24.9298 24.1316 24.9298 24.224 24.953 24.2933L25.9236 27.9218L10.9938 23.7618L13.6978 21.1733C13.7672 21.1271 13.8134 21.0347 13.8134 20.9653L15.4312 15.1645C15.8472 13.6853 16.8178 12.4373 18.1583 11.6747C19.4987 10.912 21.0703 10.7271 22.5494 11.1431C24.0285 11.5591 25.2765 12.5298 26.0392 13.8702C26.7787 15.2338 26.9867 16.8053 26.5707 18.2845Z" fill="white"/>
</svg>
