<svg width="40" height="40" viewBox="0 0 40 40" fill="none" xmlns="http://www.w3.org/2000/svg">
<circle cx="20" cy="20" r="20" fill="#3D3D3D"/>
<path d="M27.4072 9.12036H12.5924C12.409 9.12276 12.2337 9.19669 12.104 9.32641C11.9743 9.45613 11.9004 9.63137 11.898 9.81481V26.4815C11.8967 26.6641 11.9664 26.8401 12.0924 26.9722L15.7961 30.6759C15.9273 30.8045 16.1031 30.8775 16.2869 30.8796H27.4072C27.5907 30.8772 27.7659 30.8033 27.8956 30.6736C28.0253 30.5439 28.0993 30.3686 28.1017 30.1852V9.81481C28.0993 9.63137 28.0253 9.45613 27.8956 9.32641C27.7659 9.19669 27.5907 9.12276 27.4072 9.12036ZM15.6017 28.5093L14.2683 27.1759H15.6017V28.5093ZM26.7128 29.4907H16.9906V26.4815C16.9882 26.298 16.9142 26.1228 16.7845 25.9931C16.6548 25.8634 16.4795 25.7894 16.2961 25.787H13.2869V10.5093H26.7128V29.4907ZM24.6294 15.1389H15.3702V13.75H24.6294V15.1389ZM24.6294 19.7685H15.3702V18.3796H24.6294V19.7685ZM19.9998 24.3981H15.3702V23.0093H19.9998V24.3981ZM21.1572 26.0185C21.1572 26.4306 21.2794 26.8333 21.5083 27.1759C21.7372 27.5186 22.0626 27.7856 22.4433 27.9433C22.824 28.1009 23.2429 28.1422 23.647 28.0618C24.0511 27.9814 24.4223 27.783 24.7137 27.4916C25.0051 27.2003 25.2035 26.8291 25.2839 26.4249C25.3642 26.0208 25.323 25.6019 25.1653 25.2213C25.0076 24.8406 24.7406 24.5152 24.398 24.2863C24.0554 24.0574 23.6526 23.9352 23.2406 23.9352C22.688 23.9352 22.1581 24.1547 21.7674 24.5454C21.3767 24.9361 21.1572 25.466 21.1572 26.0185ZM23.935 26.0185C23.935 26.1559 23.8943 26.2901 23.818 26.4043C23.7417 26.5185 23.6332 26.6075 23.5063 26.6601C23.3794 26.7127 23.2398 26.7264 23.1051 26.6996C22.9704 26.6728 22.8466 26.6067 22.7495 26.5096C22.6524 26.4124 22.5863 26.2887 22.5595 26.154C22.5327 26.0193 22.5464 25.8797 22.599 25.7528C22.6515 25.6259 22.7405 25.5174 22.8547 25.4411C22.9689 25.3648 23.1032 25.3241 23.2406 25.3241C23.424 25.3265 23.5992 25.4004 23.729 25.5301C23.8587 25.6598 23.9326 25.8351 23.935 26.0185Z" fill="white"/>
</svg>
