<svg width="106" height="62" viewBox="0 0 106 62" fill="none" xmlns="http://www.w3.org/2000/svg">
<g clip-path="url(#clip0_515_1512)">
<path fill-rule="evenodd" clip-rule="evenodd" d="M48.9588 47.9322V42.78H50.5264C50.9384 42.759 51.3426 42.9016 51.6575 43.1788C51.7979 43.3149 51.9083 43.4811 51.9809 43.6659C52.0536 43.8508 52.0868 44.0498 52.0782 44.2494C52.0824 44.5316 52.0072 44.8089 51.8619 45.0471C51.7183 45.2752 51.5103 45.4514 51.2666 45.5514C50.9201 45.6708 50.5557 45.7233 50.1911 45.7064H49.6612V47.9384L48.9588 47.9322ZM50.4034 43.433H49.6672V45.0533H50.4451C50.6835 45.0713 50.9199 44.9978 51.1098 44.8466C51.192 44.7689 51.2559 44.6726 51.2969 44.5651C51.3378 44.4577 51.3546 44.3419 51.346 44.2266C51.346 43.6996 51.0305 43.4351 50.4034 43.4351V43.433ZM53.9753 44.5284C54.2037 44.5204 54.4313 44.5607 54.6444 44.6466C54.8576 44.7325 55.0518 44.8624 55.2155 45.0285C55.3765 45.1916 55.5033 45.3876 55.588 45.6042C55.6727 45.8208 55.7135 46.0533 55.7077 46.2871C55.7138 46.5173 55.6721 46.7462 55.5854 46.958C55.4988 47.1699 55.3692 47.3598 55.2056 47.5147C54.8651 47.8435 54.4136 48.0188 53.9495 48.0024C53.7236 48.0087 53.4987 47.9683 53.2879 47.8835C53.077 47.7987 52.8844 47.6713 52.7212 47.5085C52.4073 47.1811 52.231 46.7373 52.231 46.2747C52.231 45.8121 52.4073 45.3683 52.7212 45.0409C52.8875 44.8743 53.0841 44.7438 53.2995 44.6572C53.5148 44.5706 53.7446 44.5297 53.9753 44.5366V44.5284ZM53.9435 45.1484C53.8032 45.1419 53.663 45.1658 53.5319 45.2184C53.4007 45.271 53.2815 45.3513 53.1815 45.4542C53.083 45.562 53.006 45.6891 52.9553 45.8283C52.9045 45.9674 52.8809 46.1156 52.8859 46.2644C52.879 46.4108 52.9017 46.5572 52.9527 46.6939C53.0036 46.8306 53.0816 46.9547 53.1815 47.058C53.2854 47.1611 53.4082 47.2413 53.5426 47.2938C53.6769 47.3464 53.82 47.3702 53.9634 47.3638C54.1062 47.3708 54.2489 47.3473 54.3827 47.2947C54.5165 47.2421 54.6385 47.1615 54.7413 47.058C54.8987 46.9016 55.0063 46.6986 55.0495 46.4765C55.0928 46.2544 55.0696 46.0239 54.983 45.816C54.8965 45.608 54.7509 45.4327 54.5657 45.3137C54.3805 45.1947 54.1648 45.1377 53.9475 45.1504L53.9435 45.1484ZM60.4206 44.5532H61.1191L59.6844 48.0086H59.4721L58.5116 45.6402L57.5571 48.0086H57.3488L55.9061 44.5532H56.5987L57.45 46.6198L58.2794 44.5532H58.7616L59.5832 46.6198L60.4345 44.5532H60.4206ZM64.2147 46.2933H61.9128C61.9163 46.5857 62.0279 46.8655 62.2244 47.0745C62.3228 47.1756 62.4398 47.2549 62.5683 47.3078C62.6969 47.3608 62.8343 47.3861 62.9725 47.3824C63.3981 47.3817 63.8119 47.2366 64.1512 46.9691V47.6263C63.9675 47.7531 63.7669 47.8513 63.5559 47.9177C63.3323 47.9813 63.1011 48.0112 62.8693 48.0066C62.5591 48.0233 62.2513 47.9419 61.9863 47.773C61.7626 47.6158 61.5804 47.4026 61.4564 47.153C61.3168 46.8688 61.2486 46.5525 61.258 46.2334C61.239 45.7717 61.3902 45.3199 61.6807 44.9706C61.8177 44.8106 61.9869 44.684 62.1762 44.5997C62.3655 44.5154 62.5703 44.4755 62.7761 44.4829C62.9722 44.4746 63.1675 44.5129 63.3474 44.5949C63.5272 44.6769 63.6867 44.8005 63.8139 44.9562C64.0852 45.3152 64.222 45.7647 64.1989 46.221V46.3036L64.2147 46.2933ZM61.9367 45.8944H63.5936C63.5896 45.6659 63.5081 45.4463 63.3634 45.2744C63.2904 45.2007 63.2035 45.1433 63.1083 45.106C63.013 45.0687 62.9114 45.0521 62.8098 45.0574C62.6005 45.049 62.3965 45.127 62.2423 45.2744C62.0827 45.4427 61.9796 45.6602 61.9486 45.8944H61.9367ZM65.6018 44.549V45.3178L65.6375 45.2558C65.9498 44.7337 66.2613 44.4726 66.5722 44.4726C66.8639 44.4956 67.1367 44.6321 67.3362 44.8549L66.9968 45.446C66.8351 45.2577 66.6112 45.1397 66.3698 45.1153C66.2626 45.1172 66.1574 45.1462 66.0634 45.1998C65.9693 45.2535 65.8893 45.3302 65.83 45.4232C65.6764 45.6346 65.5959 45.8939 65.6018 46.159V47.9466H64.9569V44.5366L65.6018 44.549ZM68.5625 42.78H72.7V43.4392H70.9716V47.9466H70.2612V43.433H68.5625V42.78ZM73.7497 44.5325C73.9781 44.525 74.2055 44.5655 74.4186 44.6514C74.6317 44.7373 74.826 44.867 74.99 45.0326C75.151 45.1961 75.2778 45.3925 75.3625 45.6094C75.4472 45.8264 75.4879 46.0592 75.4821 46.2933C75.4881 46.523 75.4466 46.7514 75.3603 46.9628C75.274 47.1743 75.145 47.364 74.982 47.5188C74.6406 47.8475 74.1886 48.0228 73.7239 48.0066C73.498 48.0126 73.2732 47.9721 73.0624 47.8873C72.8516 47.8025 72.659 47.6752 72.4956 47.5126C72.34 47.3508 72.2166 47.1587 72.1324 46.9471C72.0482 46.7356 72.0048 46.5089 72.0048 46.2799C72.0048 46.0509 72.0482 45.8241 72.1324 45.6126C72.2166 45.4011 72.34 45.2089 72.4956 45.0471C72.6622 44.8825 72.8584 44.754 73.073 44.6688C73.2876 44.5837 73.5162 44.5437 73.7457 44.5511L73.7497 44.5325ZM73.718 45.1525C73.5776 45.1466 73.4376 45.1706 73.3065 45.2232C73.1755 45.2759 73.0562 45.3559 72.956 45.4584C72.8576 45.5662 72.7809 45.6934 72.7304 45.8325C72.68 45.9716 72.6568 46.1199 72.6623 46.2685C72.6555 46.4148 72.6781 46.5609 72.7287 46.6976C72.7792 46.8342 72.8567 46.9584 72.956 47.0621C73.0618 47.1661 73.1865 47.247 73.3229 47.2999C73.4592 47.3528 73.6044 47.3766 73.7497 47.37C73.8926 47.3759 74.0352 47.3517 74.1688 47.2988C74.3025 47.2458 74.4245 47.1653 74.5276 47.0621C74.6843 46.9055 74.7912 46.7028 74.834 46.4811C74.8768 46.2594 74.8534 46.0293 74.767 45.8219C74.6806 45.6144 74.5353 45.4395 74.3506 45.3206C74.1659 45.2016 73.9507 45.1444 73.7338 45.1566L73.718 45.1525ZM78.3138 42.78H81.1257V43.4392H79.0262V45.012H81.0523V45.6733H79.0262V47.2832H81.1912V47.9425H78.3138V42.78ZM84.5349 45.4666V47.9198H83.8899V46.0246C83.9126 45.753 83.8617 45.4803 83.7431 45.2372C83.6845 45.1574 83.6072 45.0946 83.5186 45.0548C83.43 45.015 83.333 44.9995 83.2371 45.0099C83.1068 45.0079 82.9785 45.0429 82.866 45.1112C82.7202 45.2033 82.5901 45.3199 82.481 45.4563V47.9094H81.8361V44.5366H82.481V44.981C82.5999 44.8311 82.7466 44.7078 82.9123 44.6183C83.078 44.5288 83.2593 44.475 83.4454 44.4602C83.6454 44.4586 83.8417 44.516 84.0116 44.6257C84.1816 44.7354 84.3183 44.893 84.4059 45.0802C84.5309 44.9004 84.6924 44.7516 84.879 44.6444C85.0657 44.5372 85.2727 44.4743 85.4854 44.4602C85.6336 44.4563 85.7808 44.4868 85.9163 44.5493C86.0518 44.6118 86.1724 44.7049 86.2692 44.8218C86.4917 45.1408 86.596 45.5327 86.5629 45.9254V47.9322H85.918V45.911C85.9338 45.6807 85.8751 45.4515 85.7513 45.26C85.6943 45.1852 85.621 45.1257 85.5375 45.0865C85.4539 45.0473 85.3626 45.0296 85.2711 45.0347C85.1231 45.0431 84.979 45.0864 84.8494 45.1612C84.7198 45.236 84.6082 45.3404 84.523 45.4666H84.5349ZM87.4182 49.6702V44.5366H88.5473C89.035 44.5062 89.5161 44.6661 89.8967 44.9851C90.0603 45.146 90.1883 45.3422 90.2715 45.5599C90.3548 45.7777 90.3915 46.0117 90.3789 46.2458C90.3876 46.4757 90.3521 46.7052 90.2744 46.9206C90.1966 47.136 90.0784 47.3331 89.9264 47.5002C89.7773 47.6619 89.5973 47.7892 89.398 47.8739C89.1988 47.9586 88.9847 47.9989 88.7695 47.9921C88.5325 47.9865 88.2982 47.9382 88.077 47.8495V49.6702H87.4182ZM88.5334 45.1628H88.077V47.2502C88.269 47.3534 88.482 47.4073 88.6981 47.4072C88.8367 47.4117 88.9746 47.3846 89.1021 47.3279C89.2296 47.2711 89.3436 47.1861 89.4363 47.0786C89.5951 46.8827 89.695 46.6424 89.7236 46.3877C89.7522 46.133 89.7082 45.8752 89.597 45.6464C89.5121 45.4869 89.3827 45.358 89.226 45.2765C89.0074 45.188 88.7736 45.1479 88.5393 45.1587L88.5334 45.1628ZM92.655 44.5284C92.8828 44.5205 93.1098 44.5608 93.3222 44.6468C93.5347 44.7327 93.7283 44.8626 93.8912 45.0285C94.0534 45.1908 94.1811 45.3866 94.2662 45.6033C94.3513 45.8201 94.3919 46.053 94.3854 46.2871C94.3924 46.5172 94.3513 46.7462 94.2649 46.9582C94.1786 47.1701 94.0491 47.36 93.8853 47.5147C93.5447 47.8435 93.0933 48.0188 92.6292 48.0024C92.4033 48.0087 92.1784 47.9683 91.9675 47.8835C91.7567 47.7987 91.5641 47.6713 91.4008 47.5085C91.2452 47.3465 91.1217 47.1542 91.0375 46.9425C90.9532 46.7308 90.9099 46.5039 90.9099 46.2747C90.9099 46.0455 90.9532 45.8186 91.0375 45.6069C91.1217 45.3952 91.2452 45.2029 91.4008 45.0409C91.5667 44.8757 91.7625 44.7466 91.9768 44.6611C92.1911 44.5756 92.4196 44.5354 92.649 44.5428L92.655 44.5284ZM92.6232 45.1484C92.4828 45.1413 92.3424 45.1649 92.2112 45.2175C92.08 45.2702 91.9608 45.3508 91.8612 45.4542C91.7619 45.5614 91.6845 45.6885 91.6337 45.8277C91.5828 45.967 91.5597 46.1155 91.5655 46.2644C91.5588 46.4108 91.5816 46.5571 91.6325 46.6938C91.6834 46.8306 91.7614 46.9546 91.8612 47.058C91.9654 47.1607 92.0882 47.2406 92.2225 47.2932C92.3567 47.3457 92.4997 47.3697 92.6431 47.3638C92.7861 47.3703 92.929 47.3465 93.063 47.2939C93.197 47.2414 93.3195 47.1611 93.4229 47.058C93.5217 46.9525 93.5988 46.8272 93.6496 46.6897C93.7005 46.5522 93.7239 46.4054 93.7186 46.2582C93.7226 46.1086 93.6962 45.9599 93.6411 45.8217C93.586 45.6835 93.5036 45.559 93.3991 45.4563C93.2932 45.3527 93.1683 45.2722 93.032 45.2196C92.8956 45.1671 92.7506 45.1436 92.6054 45.1504L92.6232 45.1484ZM99.1003 44.5532H99.7908L98.3402 47.9983H98.1279L97.1635 45.632L96.211 47.9983H95.9967L94.554 44.5428H95.2505L96.0999 46.6095L96.9313 44.5428H97.4115L98.2351 46.6095L99.0864 44.5428L99.1003 44.5532ZM102.881 46.2933H100.585C100.588 46.5862 100.7 46.8662 100.898 47.0745C100.996 47.1757 101.113 47.2552 101.241 47.3081C101.369 47.361 101.506 47.3863 101.644 47.3824C102.069 47.3817 102.482 47.2366 102.821 46.9691V47.6263C102.638 47.7539 102.437 47.8521 102.226 47.9177C102.003 47.9813 101.772 48.0112 101.541 48.0066C101.231 48.0238 100.923 47.9423 100.658 47.773C100.433 47.616 100.25 47.4029 100.124 47.153C99.9855 46.8685 99.9173 46.5524 99.9258 46.2334C99.908 45.7723 100.058 45.3212 100.346 44.9706C100.484 44.8105 100.654 44.6838 100.844 44.5996C101.034 44.5153 101.239 44.4755 101.446 44.4829C101.642 44.4746 101.837 44.513 102.016 44.595C102.196 44.677 102.355 44.8005 102.482 44.9562C102.754 45.3148 102.891 45.7646 102.867 46.221V46.3036L102.881 46.2933ZM100.608 45.8924H102.251C102.247 45.664 102.165 45.4447 102.021 45.2724C101.948 45.1991 101.861 45.1421 101.766 45.1048C101.671 45.0675 101.569 45.0507 101.468 45.0554C101.257 45.0476 101.052 45.1254 100.896 45.2724C100.738 45.4417 100.635 45.6587 100.602 45.8924H100.608ZM104.274 44.547V45.3158L104.311 45.2538C104.625 44.7316 104.937 44.4705 105.248 44.4705C105.539 44.4948 105.81 44.6311 106.01 44.8528L105.669 45.4439C105.508 45.2557 105.286 45.1376 105.045 45.1132C104.938 45.1149 104.832 45.1439 104.738 45.1975C104.644 45.2512 104.563 45.3279 104.504 45.4212C104.35 45.6328 104.269 45.8918 104.274 46.1569V47.9466H103.629V44.5366L104.274 44.547Z" fill="#4D4E4B"/>
<path fill-rule="evenodd" clip-rule="evenodd" d="M31.8435 46.126L30.4802 48.5791C27.9461 52.9356 23.7829 57.7096 19.2922 59.923C18.8239 60.1545 18.4806 60.326 18.0123 60.5224C17.5562 60.6903 17.1091 60.8835 16.6728 61.101C25.8784 59.1418 32.6968 54.8576 38.388 47.6946C43.0989 41.7529 47.9666 32.1077 47.282 21.1978C46.6232 10.7632 40.932 2.87265 32.4864 0.663383C23.4495 -1.70502 16.6292 2.52338 11.7198 9.31032C11.3666 9.79599 10.2751 11.4555 10.1204 11.9743C16.7681 8.50846 24.7175 6.97292 31.4188 12.0425C37.2509 16.4569 39.0091 25.3373 37.489 33.0853C36.606 37.5823 34.8756 41.0109 32.6987 44.764C32.3943 45.2027 32.1115 45.6573 31.8514 46.126H31.8435Z" fill="#E15A11"/>
<path fill-rule="evenodd" clip-rule="evenodd" d="M8.53287 60.7063C7.90977 61.1693 5.48485 60.3736 4.85779 60.2599C6.04842 61.1507 8.55866 61.8637 10.3625 61.9691C13.1188 62.1323 14.3312 61.6322 16.6728 61.1217C17.1112 60.9075 17.5604 60.7177 18.0182 60.5534C18.4865 60.3571 18.8298 60.1855 19.2982 59.9561C23.7948 57.7365 27.958 52.9605 30.4861 48.6101L31.8494 46.157C32.0022 45.6672 32.3554 44.9976 32.5737 44.4706C34.3815 40.1306 35.709 35.2181 35.3022 30.3883C35.0581 27.495 34.3735 24.9178 33.171 22.8078C29.2419 15.8844 20.9631 13.3218 13.8371 16.6078C9.94575 18.3913 7.4871 21.3053 5.4531 24.9468C5.15941 25.4345 4.96097 26.0194 4.69904 26.4534C5.01058 26.3976 5.92935 25.7982 6.35401 25.5895C8.19791 24.6369 10.1653 23.9693 12.1941 23.6076C17.7702 22.6548 23.644 24.5272 26.4995 29.5286C27.8389 31.8805 28.22 35.2512 27.8886 38.4607C27.2932 44.1792 24.5469 50.1436 21.856 53.5226C21.0916 54.5036 20.26 55.4257 19.3676 56.2816C18.4696 57.1176 17.5065 57.8745 16.4883 58.5446C14.5694 59.7722 10.7018 61.3036 8.55073 60.6919L8.53287 60.7063Z" fill="#069139"/>
<path fill-rule="evenodd" clip-rule="evenodd" d="M4.85181 60.2599C5.47887 60.3735 7.90578 61.1816 8.52689 60.7063C8.06478 60.5835 7.63839 60.3453 7.28465 60.0122C6.93091 59.6791 6.66051 59.2611 6.49686 58.7946C5.36973 56.0604 6.32422 51.0591 6.96319 48.3538C7.47517 46.19 8.03476 44.1792 8.68167 42.0939L10.6462 36.1233L2.90711 36.1419C2.43284 36.9107 1.39699 41.137 1.12116 42.3543C-0.198457 47.9467 -1.60142 57.6145 4.85181 60.2599Z" fill="#05559C"/>
<path fill-rule="evenodd" clip-rule="evenodd" d="M2.66504 30.8036L3.23853 31.4546C3.65734 31.0104 4.1384 30.6348 4.6653 30.3407C5.45223 29.9228 6.33608 29.7437 7.21605 29.8237C8.09601 29.9038 8.93667 30.2397 9.64215 30.7933C9.95767 31.031 10.0569 31.2273 10.3605 31.4133L10.9558 30.7933C10.6601 30.3304 9.89814 29.76 9.27901 29.4438C8.51639 29.0573 7.67938 28.8564 6.83126 28.8564C5.98315 28.8564 5.14613 29.0573 4.38352 29.4438C3.83583 29.7042 2.95079 30.3634 2.68885 30.8016L2.66504 30.8036Z" fill="#05559C"/>
<path fill-rule="evenodd" clip-rule="evenodd" d="M3.67508 31.9342L4.2704 32.6224C4.86571 32.2917 6.10198 30.8037 8.20345 31.8163C8.60992 31.9914 8.96998 32.2657 9.25319 32.6162L9.93384 31.8267C9.09643 31.2067 8.38998 30.4524 6.77469 30.4648C6.18697 30.4656 5.60632 30.5983 5.07217 30.8536C4.53802 31.1089 4.06289 31.481 3.67905 31.9445L3.67508 31.9342Z" fill="#05559C"/>
<path fill-rule="evenodd" clip-rule="evenodd" d="M4.78635 33.1039L5.41937 33.6268C5.48684 33.5792 5.52652 33.542 5.58209 33.5028C5.92247 33.2359 6.33307 33.0837 6.75883 33.0667C7.64188 33.046 7.82246 33.4428 8.38206 33.7342L8.8087 33.1142C7.90183 31.9424 5.65749 31.8412 4.7804 33.1142L4.78635 33.1039Z" fill="#05559C"/>
<path fill-rule="evenodd" clip-rule="evenodd" d="M5.7706 34.1641L6.89773 35.34L7.82841 34.2178C7.09815 33.5007 6.55642 33.5627 5.76663 34.1662L5.7706 34.1641Z" fill="#05559C"/>
<path fill-rule="evenodd" clip-rule="evenodd" d="M52.3382 32.24C56.4161 31.8266 55.0846 36.4229 53.2887 37.4542C52.4533 37.9274 51.5901 37.7931 50.5423 37.7993L52.3382 32.2503V32.24ZM48.5778 39.1799C49.8557 39.2212 52.6021 39.3617 53.6003 38.9195C56.5094 37.6423 57.3488 33.2526 55.8923 31.62C54.9378 30.5474 52.624 30.8408 51.223 30.8222L48.5718 39.1902L48.5778 39.1799Z" fill="#4D4E4B"/>
<path fill-rule="evenodd" clip-rule="evenodd" d="M60.3849 39.8061C61.4069 39.4837 62.6392 40.6162 61.2065 40.9097C59.869 41.1825 58.8212 40.3 60.3849 39.8061ZM62.0101 34.8047C63.2166 34.3914 62.7622 36.3713 62.1094 36.6647C61.4565 36.9582 61.135 36.6007 61.264 35.8918C61.3712 35.3111 61.5597 34.9577 62.0101 34.8047ZM60.4524 37.3591C59.9424 37.4976 59.5991 37.665 59.4245 38.0949C59.3115 38.317 59.2839 38.5756 59.3473 38.8182C59.4107 39.0607 59.5603 39.2691 59.7658 39.401C58.4243 39.9259 57.9997 40.8911 58.6129 41.5317C59.5832 42.5527 63.9112 42.1063 63.177 39.4651C62.8376 38.2251 61.0537 38.7231 60.7441 38.0949C61.0398 37.3839 61.7164 38.2478 63.1412 37.2682C63.7862 36.8259 64.0838 36.0075 64.0838 34.8564H64.8478L65.1733 33.6619C63.3595 33.4201 60.7203 33.3891 60.0694 35.4247C59.9483 35.7878 59.9209 36.1776 59.99 36.5552C60.0118 36.7049 60.0684 36.8468 60.1547 36.9685L60.4504 37.3819L60.4524 37.3591Z" fill="#4D4E4B"/>
<path fill-rule="evenodd" clip-rule="evenodd" d="M94.6831 37.8903C92.4824 38.3904 92.8753 34.8729 95.6316 34.9969C95.5026 35.5467 94.9212 37.5431 94.6831 37.8903ZM96.1138 33.5503C94.0977 33.6867 92.4844 33.9863 91.8891 36.4333C91.1886 39.3266 93.6274 39.5002 95.7666 39.1199L98.3939 30.8202H96.977L96.1138 33.5544V33.5503Z" fill="#4D4E4B"/>
<path fill-rule="evenodd" clip-rule="evenodd" d="M75.2559 34.9267C75.0813 35.6479 74.8075 36.3733 74.5872 37.107C74.4225 37.6505 74.4066 37.6795 73.9542 37.8861C72.3171 38.6343 72.6961 36.6813 73.341 35.8091C73.7736 35.2243 74.2022 34.8399 75.2559 34.9267ZM73.972 38.7686C73.9936 38.8134 74.0038 38.8632 74.0018 38.9133C74.0018 38.9711 73.984 39.0848 73.98 39.2047H75.3135L77.0816 33.7032C75.8374 33.5131 74.8988 33.3973 73.7538 33.8541C70.418 35.1747 70.4855 41.1246 73.9621 38.7748L73.972 38.7686Z" fill="#4D4E4B"/>
<path fill-rule="evenodd" clip-rule="evenodd" d="M104.161 34.9266C104.02 35.6128 103.702 36.4188 103.496 37.1111C103.178 38.1858 102.107 38.163 101.871 37.8964C101.388 37.3343 101.986 34.7716 104.161 34.9266ZM102.877 38.7706L102.893 39.2067H104.214L105.98 33.7362C103.657 33.0501 101.603 34.0421 100.773 35.5363C99.5945 37.6629 100.362 40.5459 102.869 38.7768L102.877 38.7706Z" fill="#4D4E4B"/>
<path fill-rule="evenodd" clip-rule="evenodd" d="M85.4893 39.184H86.8903L87.8011 36.3733C87.8388 36.2535 87.8686 36.1543 87.8944 36.0654C88.0273 35.6004 87.9857 35.5797 88.45 35.2263C89.7022 34.2819 89.8867 34.8647 89.6069 35.8463L88.6246 39.2191H89.9462L91.1091 35.6562C91.1425 35.5493 91.169 35.4402 91.1885 35.3297C91.3512 34.5464 91.2718 33.7259 90.5475 33.5771C89.72 33.4077 89.0493 33.883 88.5135 34.1971L88.6504 33.6619L87.2614 33.6329L85.4953 39.2026L85.4893 39.184Z" fill="#4D4E4B"/>
<path fill-rule="evenodd" clip-rule="evenodd" d="M69.0804 33.6103H68.116L67.6854 34.8358H68.6221C68.4633 35.7286 65.9015 40.5088 70.1977 38.9484L70.4616 37.5162C70.1995 37.642 69.9236 37.7336 69.64 37.789C68.6994 37.7064 69.8682 35.3917 70.0468 34.8606L71.1343 34.8379L71.5153 33.6123H70.5092L70.8942 32.4633L69.4634 32.4323L69.0804 33.5999V33.6103Z" fill="#4D4E4B"/>
<path fill-rule="evenodd" clip-rule="evenodd" d="M82.4692 39.1674L83.9575 39.1964L86.6523 30.8222L85.1303 30.8181L82.4692 39.1674Z" fill="#4D4E4B"/>
<path fill-rule="evenodd" clip-rule="evenodd" d="M76.6707 39.1716L78.0638 39.1984L80.7427 30.8181H79.3239L76.6707 39.1716Z" fill="#4D4E4B"/>
<path fill-rule="evenodd" clip-rule="evenodd" d="M56.3744 39.2419H57.7972L59.5018 33.5999H58.079L56.3744 39.2419ZM59.4899 31.3059C59.8868 31.3059 60.113 31.6924 60.0098 32.1677C59.9688 32.39 59.8612 32.5931 59.7026 32.7479C59.544 32.9027 59.3424 33.0013 59.1267 33.0295C58.7299 33.0295 58.4997 32.643 58.6029 32.1677C58.6453 31.9432 58.7554 31.7387 58.917 31.5837C59.0786 31.4288 59.2835 31.3315 59.5018 31.3059H59.4899Z" fill="#4D4E4B"/>
<path fill-rule="evenodd" clip-rule="evenodd" d="M64.2048 39.2419H65.6276L67.3322 33.5999H65.9114L64.2048 39.2419ZM67.3203 31.3059C67.7172 31.3059 67.9474 31.6924 67.8422 32.1677C67.8012 32.39 67.6937 32.5931 67.5351 32.7479C67.3764 32.9027 67.1748 33.0013 66.9592 33.0295C66.5623 33.0295 66.3321 32.643 66.4353 32.1677C66.4772 31.9458 66.5849 31.7432 66.7434 31.5885C66.9019 31.4339 67.103 31.335 67.3183 31.3059H67.3203Z" fill="#4D4E4B"/>
<path fill-rule="evenodd" clip-rule="evenodd" d="M96.9631 39.2419H98.3839L100.088 33.5999H98.6677L96.9631 39.2419ZM100.077 31.3059C100.473 31.3059 100.702 31.6924 100.598 32.1677C100.556 32.3923 100.446 32.5971 100.285 32.7521C100.123 32.9071 99.918 33.0043 99.6995 33.0295C99.3027 33.0295 99.0764 32.643 99.1796 32.1677C99.222 31.9435 99.3318 31.7392 99.493 31.5843C99.6542 31.4294 99.8586 31.3319 100.077 31.3059Z" fill="#4D4E4B"/>
<path fill-rule="evenodd" clip-rule="evenodd" d="M105.389 40.0665H64.1553V40.6287H105.389V40.0665Z" fill="#4D4E4B"/>
<path fill-rule="evenodd" clip-rule="evenodd" d="M56.7138 40.0665H48.296V40.6287H56.7138V40.0665Z" fill="#4D4E4B"/>
</g>
<defs>
<clipPath id="clip0_515_1512">
<rect width="106" height="62" fill="white"/>
</clipPath>
</defs>
</svg>
