<svg width="147" height="35" viewBox="0 0 147 35" fill="none" xmlns="http://www.w3.org/2000/svg">
<path opacity="0.8" d="M14.2987 0.0488281L0 9.52559V9.54343L11.0567 16.8676L14.2987 14.715V0.0488281Z" fill="#3085FE"/>
<path opacity="0.8" d="M0 24.2186L14.2987 33.6863V19.0203L11.0567 16.8677L0 24.1918V24.2186Z" fill="#3085FE"/>
<path opacity="0.8" d="M29.9997 9.75752L15.7012 0.280762V14.9469L18.9521 17.0995L29.9997 9.77536V9.75752Z" fill="#3085FE"/>
<path opacity="0.8" d="M15.7012 33.919L29.9997 24.4421V24.4242L18.9521 17.1001L15.7012 19.2527V33.919Z" fill="#3085FE"/>
<path opacity="0.8" d="M0 9.54346V24.1918L11.0567 16.8676L0 9.54346Z" fill="#0D3671"/>
<path opacity="0.8" d="M30.0001 24.4242V9.77588L18.9521 17.1001L30.0001 24.4242Z" fill="#0D3671"/>
<path d="M43.1523 7.98633V25.0488H39.6484V7.98633H43.1523ZM48.4023 7.98633V10.7402H34.4805V7.98633H48.4023ZM50.4062 7.98633H56.7695C58.0742 7.98633 59.1953 8.18164 60.1328 8.57227C61.0781 8.96289 61.8047 9.54102 62.3125 10.3066C62.8203 11.0723 63.0742 12.0137 63.0742 13.1309C63.0742 14.0449 62.918 14.8301 62.6055 15.4863C62.3008 16.1348 61.8672 16.6777 61.3047 17.1152C60.75 17.5449 60.0977 17.8887 59.3477 18.1465L58.2344 18.7324H52.7031L52.6797 15.9902H56.793C57.4102 15.9902 57.9219 15.8809 58.3281 15.6621C58.7344 15.4434 59.0391 15.1387 59.2422 14.748C59.4531 14.3574 59.5586 13.9043 59.5586 13.3887C59.5586 12.8418 59.457 12.3691 59.2539 11.9707C59.0508 11.5723 58.7422 11.2676 58.3281 11.0566C57.9141 10.8457 57.3945 10.7402 56.7695 10.7402H53.9219V25.0488H50.4062V7.98633ZM59.9453 25.0488L56.0547 17.4434L59.7695 17.4199L63.707 24.8848V25.0488H59.9453ZM72.7188 10.9043L68.0781 25.0488H64.3398L70.6797 7.98633H73.0586L72.7188 10.9043ZM76.5742 25.0488L71.9219 10.9043L71.5469 7.98633H73.9492L80.3242 25.0488H76.5742ZM76.3633 18.6973V21.4512H67.3516V18.6973H76.3633ZM91.5859 19.3887H95.0898C95.0195 20.5371 94.7031 21.5566 94.1406 22.4473C93.5859 23.3379 92.8086 24.0332 91.8086 24.5332C90.8164 25.0332 89.6211 25.2832 88.2227 25.2832C87.1289 25.2832 86.1484 25.0957 85.2812 24.7207C84.4141 24.3379 83.6719 23.791 83.0547 23.0801C82.4453 22.3691 81.9805 21.5098 81.6602 20.502C81.3398 19.4941 81.1797 18.3652 81.1797 17.1152V15.9316C81.1797 14.6816 81.3438 13.5527 81.6719 12.5449C82.0078 11.5293 82.4844 10.666 83.1016 9.95508C83.7266 9.24414 84.4727 8.69727 85.3398 8.31445C86.207 7.93164 87.1758 7.74023 88.2461 7.74023C89.668 7.74023 90.8672 7.99805 91.8438 8.51367C92.8281 9.0293 93.5898 9.74023 94.1289 10.6465C94.6758 11.5527 95.0039 12.584 95.1133 13.7402H91.5977C91.5586 13.0527 91.4219 12.4707 91.1875 11.9941C90.9531 11.5098 90.5977 11.1465 90.1211 10.9043C89.6523 10.6543 89.0273 10.5293 88.2461 10.5293C87.6602 10.5293 87.1484 10.6387 86.7109 10.8574C86.2734 11.0762 85.9062 11.4082 85.6094 11.8535C85.3125 12.2988 85.0898 12.8613 84.9414 13.541C84.8008 14.2129 84.7305 15.002 84.7305 15.9082V17.1152C84.7305 17.998 84.7969 18.7754 84.9297 19.4473C85.0625 20.1113 85.2656 20.6738 85.5391 21.1348C85.8203 21.5879 86.1797 21.9316 86.6172 22.166C87.0625 22.3926 87.5977 22.5059 88.2227 22.5059C88.957 22.5059 89.5625 22.3887 90.0391 22.1543C90.5156 21.9199 90.8789 21.5723 91.1289 21.1113C91.3867 20.6504 91.5391 20.0762 91.5859 19.3887ZM100.914 7.98633V25.0488H97.3984V7.98633H100.914ZM111.133 7.98633L104.371 16.4121L100.469 20.6074L99.8359 17.2793L102.473 13.6699L106.82 7.98633H111.133ZM107.137 25.0488L102.109 17.1621L104.711 14.9824L111.297 25.0488H107.137ZM116.395 7.98633V25.0488H112.891V7.98633H116.395ZM123.203 7.98633V25.0488H119.688V7.98633H123.203ZM130 15.2754V18.0176H122.242V15.2754H130ZM130.82 7.98633V10.7402H122.242V7.98633H130.82ZM135.203 7.98633L138.766 15.7676L142.328 7.98633H146.16L140.547 18.8379V25.0488H136.984V18.8379L131.359 7.98633H135.203Z" fill="white"/>
</svg>
