<svg width="120" height="95" viewBox="0 0 156 124" fill="none" xmlns="http://www.w3.org/2000/svg">
<path d="M77.3417 124C81.6235 124 85.0945 120.529 85.0945 116.247C85.0945 111.965 81.6235 108.494 77.3417 108.494C73.0599 108.494 69.5889 111.965 69.5889 116.247C69.5889 120.529 73.0599 124 77.3417 124Z" fill="#71DDB1"/>
<path d="M77.343 77.4832C67.3087 77.483 57.6653 81.3737 50.4407 88.3372C48.9602 89.7662 48.1081 91.7249 48.0717 93.7822C48.0354 95.8395 48.8178 97.827 50.2469 99.3075C51.6759 100.788 53.6345 101.64 55.6918 101.676C57.7492 101.713 59.7367 100.93 61.2171 99.5013C65.6199 95.4697 71.3732 93.2336 77.343 93.2336C83.3128 93.2336 89.066 95.4697 93.4689 99.5013C94.9493 100.93 96.9368 101.713 98.9941 101.676C101.051 101.64 103.01 100.788 104.439 99.3075C105.868 97.827 106.651 95.8395 106.614 93.7822C106.578 91.7249 105.726 89.7662 104.245 88.3372C97.0206 81.3737 87.3772 77.483 77.343 77.4832ZM77.343 38.7191C67.9792 38.7253 58.7124 40.6161 50.0948 44.279C41.4771 47.9418 33.6848 53.3017 27.1822 60.0394C26.4746 60.7877 25.9213 61.6681 25.554 62.6302C25.1866 63.5923 25.0124 64.6174 25.0412 65.6469C25.0699 66.6764 25.3012 67.6901 25.7218 68.6302C26.1424 69.5703 26.744 70.4183 27.4923 71.1259C29.0036 72.555 31.0207 73.3251 33.0998 73.267C34.1293 73.2382 35.143 73.0069 36.0831 72.5863C37.0232 72.1657 37.8713 71.5641 38.5788 70.8158C43.6413 65.5635 49.7108 61.3857 56.4244 58.5321C63.1381 55.6786 70.3582 54.2079 77.6531 54.2079C84.948 54.2079 92.1681 55.6786 98.8817 58.5321C105.595 61.3857 111.665 65.5635 116.727 70.8158C117.445 71.5484 118.302 72.1311 119.246 72.5304C120.191 72.9296 121.206 73.1374 122.232 73.1417C123.747 73.1359 125.227 72.6863 126.489 71.8486C127.752 71.0108 128.741 69.8215 129.335 68.4276C129.929 67.0337 130.101 65.4964 129.831 64.0057C129.56 62.5149 128.859 61.136 127.814 60.0394C121.275 53.2641 113.432 47.8823 104.759 44.2182C96.0847 40.5541 86.759 38.6835 77.343 38.7191Z" fill="#71DDB1"/>
<path d="M152.703 30.4237C132.472 10.9065 105.457 0 77.3457 0C49.2346 0 22.2198 10.9065 1.98826 30.4237C0.679875 31.8785 -0.0300215 33.7743 0.000973826 35.7307C0.0319691 37.6871 0.801564 39.5594 2.15538 40.9721C3.50919 42.3848 5.34709 43.2333 7.30041 43.3475C9.25372 43.4617 11.178 42.8331 12.6872 41.5878C30.0349 24.8193 53.2185 15.4461 77.3457 15.4461C101.473 15.4461 124.657 24.8193 142.004 41.5878C143.441 42.973 145.358 43.7506 147.354 43.7585C148.398 43.7546 149.431 43.5396 150.39 43.1266C151.349 42.7136 152.215 42.1111 152.936 41.3552C154.349 39.8721 155.118 37.8898 155.075 35.8414C155.031 33.7931 154.178 31.8453 152.703 30.4237Z" fill="#71DDB1"/>
</svg>
