<svg width="130" height="104" viewBox="0 0 157 134" fill="none" xmlns="http://www.w3.org/2000/svg">
<path fill-rule="evenodd" clip-rule="evenodd" d="M98.6911 9.00611C100.751 6.94589 100.751 3.60539 98.6911 1.54517C96.6309 -0.515056 93.2904 -0.515056 91.2301 1.54517L78.0787 14.6968L64.9273 1.54517C62.8671 -0.515056 59.5266 -0.515056 57.4664 1.54517C55.4062 3.60539 55.4062 6.94589 57.4664 9.00611L70.618 22.1575L57.4664 35.3089C55.4062 37.3692 55.4062 40.7097 57.4664 42.7699C59.5266 44.8301 62.8671 44.8301 64.9273 42.7699L78.0787 29.6183L91.2301 42.7699C93.2904 44.8301 96.6309 44.8301 98.6911 42.7699C100.751 40.7097 100.751 37.3692 98.6911 35.3089L85.5395 22.1575L98.6911 9.00611ZM119.319 28.2025C116.086 26.8714 112.386 28.4131 111.055 31.646C109.723 34.8791 111.265 38.5792 114.498 39.9103C126.043 44.6642 136.531 51.6312 145.364 60.4115C147.843 62.8764 151.852 62.8644 154.316 60.3849C156.781 57.9053 156.77 53.8969 154.29 51.432C144.278 41.4795 132.395 33.5868 119.319 28.2025ZM41.6595 39.9103C44.8923 38.5792 46.4341 34.8791 45.1029 31.646C43.7716 28.4131 40.0715 26.8714 36.8386 28.2025C23.7628 33.5868 11.8792 41.4795 1.86759 51.432C-0.612151 53.8969 -0.623969 57.9053 1.841 60.3849C4.30596 62.8646 8.31435 62.8764 10.7939 60.4115C19.6265 51.6312 30.1141 44.6642 41.6595 39.9103ZM78.0787 53.8111C68.9868 53.8111 59.9894 55.6643 51.6018 59.2588C43.2149 62.8532 35.6088 68.1155 29.2118 74.7342C26.7819 77.2484 26.8502 81.2561 29.3642 83.6859C31.8783 86.1158 35.8861 86.0474 38.3158 83.5335C43.5578 78.1098 49.7691 73.8195 56.5894 70.8966C63.4092 67.9737 70.7106 66.4725 78.0787 66.4725C85.4468 66.4725 92.7482 67.9737 99.5681 70.8966C106.388 73.8195 112.6 78.1098 117.842 83.5335C120.271 86.0474 124.279 86.1158 126.793 83.6859C129.307 81.2561 129.376 77.2484 126.946 74.7342C120.549 68.1155 112.943 62.8532 104.556 59.2588C96.1681 55.6643 87.1707 53.8111 78.0787 53.8111ZM62.8964 90.8845C67.6894 88.7059 72.8504 87.5748 78.0787 87.5748C83.3071 87.5748 88.4681 88.7059 93.261 90.8845C98.0519 93.0621 102.365 96.2357 105.971 100.193C108.326 102.777 108.14 106.781 105.555 109.136C102.971 111.491 98.9671 111.305 96.6121 108.721C94.1212 105.987 91.1964 103.854 88.0217 102.411C84.849 100.969 81.4722 100.236 78.0787 100.236C74.6853 100.236 71.3085 100.969 68.1357 102.411C64.9611 103.854 62.0363 105.987 59.5454 108.721C57.1904 111.305 53.1864 111.491 50.602 109.136C48.0178 106.781 47.8319 102.777 50.1869 100.193C53.7927 96.2357 58.1056 93.0621 62.8964 90.8845ZM78.0787 134C82.7405 134 86.5197 130.221 86.5197 125.559C86.5197 120.897 82.7405 117.118 78.0787 117.118C73.417 117.118 69.6378 120.897 69.6378 125.559C69.6378 130.221 73.417 134 78.0787 134Z" fill="#EC2A2A"/>
</svg>
